HIERARCHY
ROOT Hips
{
	OFFSET -339.306915 540.749023 89.171944
	CHANNELS 6 Xposition Yposition Zposition Zrotation Yrotation Xrotation
	JOINT Spine
	{
		OFFSET 0.000000 2.080078 8.814247
		CHANNELS 6 Xposition Yposition Zposition Zrotation Yrotation Xrotation
		JOINT Spine1
		{
			OFFSET 0.000000 0.000000 8.844139
			CHANNELS 6 Xposition Yposition Zposition Zrotation Yrotation Xrotation
			JOINT Spine2
			{
				OFFSET 0.000000 0.000000 11.682266
				CHANNELS 6 Xposition Yposition Zposition Zrotation Yrotation Xrotation
				JOINT Spine3
				{
					OFFSET 0.000000 0.000000 11.746696
					CHANNELS 6 Xposition Yposition Zposition Zrotation Yrotation Xrotation
					JOINT Neck
					{
						OFFSET 0.000000 0.000000 17.658264
						CHANNELS 6 Xposition Yposition Zposition Zrotation Yrotation Xrotation
						JOINT Neck1
						{
							OFFSET 0.000000 0.000000 5.101517
							CHANNELS 6 Xposition Yposition Zposition Zrotation Yrotation Xrotation
							JOINT Head
							{
								OFFSET 0.000000 0.000000 5.101517
								CHANNELS 6 Xposition Yposition Zposition Zrotation Yrotation Xrotation
								JOINT HeadEnd
								{
									OFFSET 0.000000 0.000000 11.655090
									CHANNELS 6 Xposition Yposition Zposition Zrotation Yrotation Xrotation
									End Site
									{
										OFFSET 0.000000 0.000000 0.100006
									}
								}
							}
						}
					}
					JOINT RightShoulder
					{
						OFFSET -2.625397 0.000000 11.175217
						CHANNELS 6 Xposition Yposition Zposition Zrotation Yrotation Xrotation
						JOINT RightArm
						{
							OFFSET 0.000000 0.000000 10.434708
							CHANNELS 6 Xposition Yposition Zposition Zrotation Yrotation Xrotation
							JOINT RightForeArm
							{
								OFFSET 0.000000 0.000000 29.628418
								CHANNELS 6 Xposition Yposition Zposition Zrotation Yrotation Xrotation
								JOINT RightHand
								{
									OFFSET 0.000000 0.000000 22.857605
									CHANNELS 6 Xposition Yposition Zposition Zrotation Yrotation Xrotation
									JOINT RightHandThumb1
									{
										OFFSET -2.867310 -2.944275 3.959564
										CHANNELS 6 Xposition Yposition Zposition Zrotation Yrotation Xrotation
										JOINT RightHandThumb2
										{
											OFFSET 0.000000 0.000000 3.350403
											CHANNELS 6 Xposition Yposition Zposition Zrotation Yrotation Xrotation
											JOINT RightHandThumb3
											{
												OFFSET 0.000000 0.000000 3.756516
												CHANNELS 6 Xposition Yposition Zposition Zrotation Yrotation Xrotation
												JOINT RightHandThumb4
												{
													OFFSET 0.000000 0.000000 3.147339
													CHANNELS 6 Xposition Yposition Zposition Zrotation Yrotation Xrotation
													End Site
													{
														OFFSET 0.000000 0.000000 0.100006
													}
												}
											}
										}
									}
									JOINT RightHandIndex1
									{
										OFFSET -0.086761 -2.345276 10.030899
										CHANNELS 6 Xposition Yposition Zposition Zrotation Yrotation Xrotation
										JOINT RightHandIndex2
										{
											OFFSET 0.000000 0.000000 4.061096
											CHANNELS 6 Xposition Yposition Zposition Zrotation Yrotation Xrotation
											JOINT RightHandIndex3
											{
												OFFSET 0.000000 0.000000 3.248871
												CHANNELS 6 Xposition Yposition Zposition Zrotation Yrotation Xrotation
												JOINT RightHandIndex4
												{
													OFFSET 0.000000 0.000000 2.639709
													CHANNELS 6 Xposition Yposition Zposition Zrotation Yrotation Xrotation
													End Site
													{
														OFFSET 0.000000 0.000000 0.100006
													}
												}
											}
										}
									}
									JOINT RightHandMiddle1
									{
										OFFSET 0.104095 -0.006775 9.502945
										CHANNELS 6 Xposition Yposition Zposition Zrotation Yrotation Xrotation
										JOINT RightHandMiddle2
										{
											OFFSET 0.000000 0.000000 4.568726
											CHANNELS 6 Xposition Yposition Zposition Zrotation Yrotation Xrotation
											JOINT RightHandMiddle3
											{
												OFFSET 0.000000 0.000000 3.654984
												CHANNELS 6 Xposition Yposition Zposition Zrotation Yrotation Xrotation
												JOINT RightHandMiddle4
												{
													OFFSET 0.000000 0.000000 2.741241
													CHANNELS 6 Xposition Yposition Zposition Zrotation Yrotation Xrotation
													End Site
													{
														OFFSET 0.000000 0.000000 0.100006
													}
												}
											}
										}
									}
									JOINT RightHandRing1
									{
										OFFSET 0.086761 2.267456 8.921707
										CHANNELS 6 Xposition Yposition Zposition Zrotation Yrotation Xrotation
										JOINT RightHandRing2
										{
											OFFSET 0.000000 0.000000 4.061096
											CHANNELS 6 Xposition Yposition Zposition Zrotation Yrotation Xrotation
											JOINT RightHandRing3
											{
												OFFSET 0.000000 0.000000 3.654984
												CHANNELS 6 Xposition Yposition Zposition Zrotation Yrotation Xrotation
												JOINT RightHandRing4
												{
													OFFSET 0.000000 0.000000 2.741241
													CHANNELS 6 Xposition Yposition Zposition Zrotation Yrotation Xrotation
													End Site
													{
														OFFSET 0.000000 0.000000 0.100006
													}
												}
											}
										}
									}
									JOINT RightHandPinky1
									{
										OFFSET -0.173492 4.467224 7.976990
										CHANNELS 6 Xposition Yposition Zposition Zrotation Yrotation Xrotation
										JOINT RightHandPinky2
										{
											OFFSET 0.000000 0.000000 3.350403
											CHANNELS 6 Xposition Yposition Zposition Zrotation Yrotation Xrotation
											JOINT RightHandPinky3
											{
												OFFSET 0.000000 0.000000 2.842758
												CHANNELS 6 Xposition Yposition Zposition Zrotation Yrotation Xrotation
												JOINT RightHandPinky4
												{
													OFFSET 0.000000 0.000000 2.639709
													CHANNELS 6 Xposition Yposition Zposition Zrotation Yrotation Xrotation
													End Site
													{
														OFFSET 0.000000 0.000000 0.100006
													}
												}
											}
										}
									}
									JOINT RightForeArmEnd
									{
										OFFSET 0.000000 0.000000 0.000000
										CHANNELS 6 Xposition Yposition Zposition Zrotation Yrotation Xrotation
										End Site
										{
											OFFSET 0.000000 0.000000 0.100006
										}
									}
								}
								JOINT RightArmEnd
								{
									OFFSET 0.000000 0.000000 0.000000
									CHANNELS 6 Xposition Yposition Zposition Zrotation Yrotation Xrotation
									End Site
									{
										OFFSET 0.000000 0.000000 0.100006
									}
								}
							}
						}
					}
					JOINT LeftShoulder
					{
						OFFSET 2.625397 0.000000 11.175217
						CHANNELS 6 Xposition Yposition Zposition Zrotation Yrotation Xrotation
						JOINT LeftArm
						{
							OFFSET 0.000000 0.000000 10.813629
							CHANNELS 6 Xposition Yposition Zposition Zrotation Yrotation Xrotation
							JOINT LeftForeArm
							{
								OFFSET 0.000000 0.000000 28.724777
								CHANNELS 6 Xposition Yposition Zposition Zrotation Yrotation Xrotation
								JOINT LeftHand
								{
									OFFSET 0.644379 0.328857 25.716171
									CHANNELS 6 Xposition Yposition Zposition Zrotation Yrotation Xrotation
									JOINT LeftHandThumb1
									{
										OFFSET 2.867310 -2.944275 3.959564
										CHANNELS 6 Xposition Yposition Zposition Zrotation Yrotation Xrotation
										JOINT LeftHandThumb2
										{
											OFFSET 0.000000 0.000000 3.350403
											CHANNELS 6 Xposition Yposition Zposition Zrotation Yrotation Xrotation
											JOINT LeftHandThumb3
											{
												OFFSET 0.000000 0.000000 3.756516
												CHANNELS 6 Xposition Yposition Zposition Zrotation Yrotation Xrotation
												JOINT LeftHandThumb4
												{
													OFFSET 0.000000 0.000000 3.100006
													CHANNELS 6 Xposition Yposition Zposition Zrotation Yrotation Xrotation
													End Site
													{
														OFFSET 0.000000 0.000000 0.100006
													}
												}
											}
										}
									}
									JOINT LeftHandIndex1
									{
										OFFSET 0.086761 -2.345276 10.030899
										CHANNELS 6 Xposition Yposition Zposition Zrotation Yrotation Xrotation
										JOINT LeftHandIndex2
										{
											OFFSET 0.000000 0.000000 4.061096
											CHANNELS 6 Xposition Yposition Zposition Zrotation Yrotation Xrotation
											JOINT LeftHandIndex3
											{
												OFFSET 0.000000 0.000000 3.248871
												CHANNELS 6 Xposition Yposition Zposition Zrotation Yrotation Xrotation
												JOINT LeftHandIndex4
												{
													OFFSET 0.000000 0.000000 2.639709
													CHANNELS 6 Xposition Yposition Zposition Zrotation Yrotation Xrotation
													End Site
													{
														OFFSET 0.000000 0.000000 0.100006
													}
												}
											}
										}
									}
									JOINT LeftHandMiddle1
									{
										OFFSET -0.104095 -0.006775 9.502945
										CHANNELS 6 Xposition Yposition Zposition Zrotation Yrotation Xrotation
										JOINT LeftHandMiddle2
										{
											OFFSET 0.000000 0.000000 4.568726
											CHANNELS 6 Xposition Yposition Zposition Zrotation Yrotation Xrotation
											JOINT LeftHandMiddle3
											{
												OFFSET 0.000000 0.000000 3.654984
												CHANNELS 6 Xposition Yposition Zposition Zrotation Yrotation Xrotation
												JOINT LeftHandMiddle4
												{
													OFFSET 0.000000 0.000000 2.741241
													CHANNELS 6 Xposition Yposition Zposition Zrotation Yrotation Xrotation
													End Site
													{
														OFFSET 0.000000 0.000000 0.100006
													}
												}
											}
										}
									}
									JOINT LeftHandRing1
									{
										OFFSET -0.086761 2.267456 8.921707
										CHANNELS 6 Xposition Yposition Zposition Zrotation Yrotation Xrotation
										JOINT LeftHandRing2
										{
											OFFSET 0.000000 0.000000 4.061096
											CHANNELS 6 Xposition Yposition Zposition Zrotation Yrotation Xrotation
											JOINT LeftHandRing3
											{
												OFFSET 0.000000 0.000000 3.654984
												CHANNELS 6 Xposition Yposition Zposition Zrotation Yrotation Xrotation
												JOINT LeftHandRing4
												{
													OFFSET 0.000000 0.000000 2.741241
													CHANNELS 6 Xposition Yposition Zposition Zrotation Yrotation Xrotation
													End Site
													{
														OFFSET 0.000000 0.000000 0.100006
													}
												}
											}
										}
									}
									JOINT LeftHandPinky1
									{
										OFFSET 0.173492 4.467224 7.976990
										CHANNELS 6 Xposition Yposition Zposition Zrotation Yrotation Xrotation
										JOINT LeftHandPinky2
										{
											OFFSET 0.000000 0.000000 3.350403
											CHANNELS 6 Xposition Yposition Zposition Zrotation Yrotation Xrotation
											JOINT LeftHandPinky3
											{
												OFFSET 0.000000 0.000000 2.842758
												CHANNELS 6 Xposition Yposition Zposition Zrotation Yrotation Xrotation
												JOINT LeftHandPinky4
												{
													OFFSET 0.000000 0.000000 2.639709
													CHANNELS 6 Xposition Yposition Zposition Zrotation Yrotation Xrotation
													End Site
													{
														OFFSET 0.000000 0.000000 0.100006
													}
												}
											}
										}
									}
									JOINT LeftForeArmEnd
									{
										OFFSET 0.000000 0.000000 0.000000
										CHANNELS 6 Xposition Yposition Zposition Zrotation Yrotation Xrotation
										End Site
										{
											OFFSET 0.000000 0.000000 0.100006
										}
									}
								}
								JOINT LeftArmEnd
								{
									OFFSET 0.000000 0.000000 0.000000
									CHANNELS 6 Xposition Yposition Zposition Zrotation Yrotation Xrotation
									End Site
									{
										OFFSET 0.000000 0.000000 0.100006
									}
								}
							}
						}
					}
				}
			}
		}
	}
	JOINT RightUpLeg
	{
		OFFSET -11.289948 0.000000 0.000000
		CHANNELS 6 Xposition Yposition Zposition Zrotation Yrotation Xrotation
		JOINT RightLeg
		{
			OFFSET 0.000000 0.000000 -38.200329
			CHANNELS 6 Xposition Yposition Zposition Zrotation Yrotation Xrotation
			JOINT RightFoot
			{
				OFFSET 0.000000 0.000000 -39.900856
				CHANNELS 6 Xposition Yposition Zposition Zrotation Yrotation Xrotation
				JOINT RightToeBase
				{
					OFFSET 0.000000 -15.261658 0.000001
					CHANNELS 6 Xposition Yposition Zposition Zrotation Yrotation Xrotation
					JOINT RightToeBaseEnd
					{
						OFFSET 0.000000 -7.370728 0.000001
						CHANNELS 6 Xposition Yposition Zposition Zrotation Yrotation Xrotation
						End Site
						{
							OFFSET 0.000000 0.000000 0.100000
						}
					}
				}
				JOINT RightLegEnd
				{
					OFFSET 0.000000 0.000000 0.000000
					CHANNELS 6 Xposition Yposition Zposition Zrotation Yrotation Xrotation
					End Site
					{
						OFFSET 0.000000 0.000000 0.100000
					}
				}
			}
			JOINT RightUpLegEnd
			{
				OFFSET 0.000000 0.000000 0.000000
				CHANNELS 6 Xposition Yposition Zposition Zrotation Yrotation Xrotation
				End Site
				{
					OFFSET 0.000000 0.000000 0.099998
				}
			}
		}
	}
	JOINT LeftUpLeg
	{
		OFFSET 11.315674 0.000000 0.000000
		CHANNELS 6 Xposition Yposition Zposition Zrotation Yrotation Xrotation
		JOINT LeftLeg
		{
			OFFSET 0.000000 0.000000 -38.200329
			CHANNELS 6 Xposition Yposition Zposition Zrotation Yrotation Xrotation
			JOINT LeftFoot
			{
				OFFSET 0.000000 0.000000 -39.900856
				CHANNELS 6 Xposition Yposition Zposition Zrotation Yrotation Xrotation
				JOINT LeftToeBase
				{
					OFFSET 0.000000 -15.261658 0.000001
					CHANNELS 6 Xposition Yposition Zposition Zrotation Yrotation Xrotation
					JOINT LeftToeBaseEnd
					{
						OFFSET 0.000000 -7.539978 0.000001
						CHANNELS 6 Xposition Yposition Zposition Zrotation Yrotation Xrotation
						End Site
						{
							OFFSET 0.000000 0.000000 0.100000
						}
					}
				}
				JOINT LeftLegEnd
				{
					OFFSET 0.000000 0.000000 0.000000
					CHANNELS 6 Xposition Yposition Zposition Zrotation Yrotation Xrotation
					End Site
					{
						OFFSET 0.000000 0.000000 0.100000
					}
				}
			}
			JOINT LeftUpLegEnd
			{
				OFFSET 0.000000 0.000000 0.000000
				CHANNELS 6 Xposition Yposition Zposition Zrotation Yrotation Xrotation
				End Site
				{
					OFFSET 0.000000 0.000000 0.099998
				}
			}
		}
	}
}
MOTION
Frames: 2
Frame Time: 0.016667
33.700867 -63.916382 87.992203 -12.826601 -2.046808 -8.153061 -0.000010 2.080106 8.814256 0.514029 2.069049 5.643822 -0.000007 -0.000018 8.844123 0.513466 0.025244 2.268775 0.000005 0.000012 11.682291 3.082641 0.716614 2.254671 -0.000007 -0.000015 11.746698 0.986973 0.350830 2.390374 0.000009 -0.000006 17.658287 6.175733 -7.475429 10.992371 0.000016 -0.000014 5.101543 7.429456 -2.817173 0.213137 -0.000015 0.000007 5.101567 0.912135 0.832125 -17.001618 -0.000003 0.000004 11.655088 -0.000001 -0.000000 0.000000 -2.625404 -0.000006 11.175240 9.492816 -70.848664 -0.023921 -0.000015 -0.000014 10.434738 41.088352 -11.167307 -9.729640 0.000004 -0.000031 29.628386 19.145539 -0.093474 95.627068 0.000008 -0.000018 22.857597 24.265200 24.587218 10.557189 -2.867306 -2.944275 3.959557 31.969930 -15.218329 54.724971 0.000002 0.000000 3.350399 -8.189146 6.261732 -15.233333 0.000019 0.000019 3.756517 -5.506912 4.583288 -10.473305 -0.000008 0.000015 3.147337 -0.000003 0.000001 0.000001 -0.086767 -2.345287 10.030882 188.836357 -181.165331 -171.764573 0.000004 -0.000024 4.061095 -0.516367 0.000028 -0.000007 -0.000005 -0.000018 3.248860 -0.016918 -0.000010 -0.000004 0.000004 -0.000019 2.639731 0.000003 -0.000000 -0.000001 0.104103 -0.006788 9.502934 3.820474 1.522740 7.407950 0.000005 0.000011 4.568711 -0.506481 -0.000110 0.000008 -0.000005 0.000021 3.654958 -0.010462 0.000009 -0.002865 0.000011 0.000019 2.741215 -0.000003 0.000002 -0.000002 0.086768 2.267450 8.921713 175.508350 -180.384108 -173.849993 0.000005 -0.000005 4.061070 1.002783 -0.077922 0.004303 -0.000024 -0.000020 3.654984 0.001186 -0.068804 0.004562 0.000007 0.000005 2.741260 0.000000 0.000000 -0.000000 -0.173491 4.467190 7.976987 166.802331 -179.835794 -174.012675 -0.000003 0.000021 3.350384 1.998145 -1.047907 0.204009 0.000021 0.000001 2.842765 -0.002576 -1.049730 0.203878 0.000000 -0.000009 2.639706 0.000001 -0.000001 0.000000 0.000014 0.000004 -0.000008 0.000000 0.000000 0.000001 -0.000007 -0.000003 0.000029 0.000000 -0.000001 0.000002 2.625378 0.000007 11.175236 -11.991137 78.942268 -0.348332 0.000000 0.000017 10.813644 -65.576257 22.557400 -28.348109 -0.000038 0.000008 28.724747 -12.454421 1.544639 124.915390 0.644356 0.328793 25.716175 -38.012130 -65.917234 47.450048 2.867306 -2.944290 3.959610 -31.690719 16.746669 52.306822 0.000011 -0.000061 3.350407 11.527919 -7.943529 -20.956275 0.000010 0.000027 3.756512 7.690614 -5.973175 -14.361036 -0.000006 0.000004 3.100009 -0.000001 0.000000 0.000000 0.086773 -2.345272 10.030842 9.859332 6.789196 17.579362 0.000006 -0.000020 4.061127 -0.447377 6.532152 0.922089 0.000003 0.000019 3.248887 0.052623 6.532149 0.922068 -0.000013 -0.000014 2.639734 0.000002 -0.000001 0.000002 -0.104082 -0.006786 9.502937 4.847325 7.127732 12.038821 -0.000010 0.000006 4.568733 -0.485750 5.568728 0.292774 -0.000014 -0.000026 3.655014 0.018778 5.568739 0.293206 0.000014 -0.000006 2.741268 0.000001 -0.000002 -0.000001 -0.086754 2.267429 8.921696 -3.309241 7.237261 5.552184 0.000003 -0.000015 4.061100 0.987631 4.810641 -0.294912 -0.000004 -0.000022 3.654973 -0.013813 4.810637 -0.295046 -0.000015 0.000007 2.741240 -0.000001 0.000001 -0.000001 0.173470 4.467204 7.976992 -12.188666 5.108059 0.535415 0.000014 0.000037 3.350373 1.980486 3.389212 -0.659432 -0.000004 -0.000028 2.842748 -0.019521 3.388103 -0.659553 -0.000000 -0.000020 2.639716 0.000003 0.000001 -0.000001 0.000011 0.000001 -0.000002 0.000000 0.000003 0.000001 -0.000046 0.000002 0.000033 0.000001 -0.000001 -0.000001 -11.289964 0.000047 -0.000000 5.662918 4.420328 -0.046078 0.000008 0.000017 -38.200291 -0.487974 0.219495 24.217928 0.000014 -0.000000 -39.900852 -8.960099 -0.148710 12.582376 -0.000005 -15.261654 0.000008 0.813383 0.651110 -20.564561 0.000004 -7.370660 -0.000000 -0.000001 0.000001 0.000000 -0.000006 0.000071 -0.000000 -0.000002 0.000000 0.000002 -0.000006 0.000008 0.000003 -0.000001 0.000000 0.000002 11.315633 0.000029 0.000004 9.999170 -6.530174 4.441712 -0.000062 0.000005 -38.200321 1.672494 -0.532484 17.655271 -0.000038 -0.000037 -39.900871 11.151051 8.261270 19.204615 0.000002 -15.261634 -0.000004 -1.693519 -1.971625 -19.886772 -0.000002 -7.539979 0.000001 0.000000 -0.000000 -0.000000 0.000000 -0.000064 0.000003 0.000000 -0.000000 0.000001 -0.000028 0.000060 -0.000012 0.000000 0.000001 -0.000002 
33.410400 -63.799744 88.271400 -13.172538 -1.970095 -6.276729 -0.000001 2.080096 8.814222 0.531101 2.290096 4.740485 -0.000002 -0.000013 8.844148 0.555553 0.188705 2.063936 0.000011 0.000011 11.682270 3.426939 0.748508 1.377654 -0.000002 0.000023 11.746708 1.140422 0.040526 1.489281 0.000006 -0.000004 17.658283 3.518850 -10.830511 11.849176 0.000004 0.000075 5.101530 5.302501 -2.670390 1.022248 0.000007 0.000005 5.101555 0.992396 0.096632 -17.675942 0.000000 -0.000000 11.655076 -0.000000 0.000000 0.000000 -2.625420 -0.000011 11.175251 8.831538 -69.748662 -0.022461 -0.000008 -0.000002 10.434708 42.728151 -10.022520 -10.088856 0.000013 -0.000034 29.628407 19.151475 0.028248 95.394704 -0.000053 0.000017 22.857559 25.883902 32.055973 15.569426 -2.867310 -2.944275 3.959564 32.008165 -15.052134 54.995355 -0.000038 -0.000008 3.350410 -7.829722 6.054744 -14.604976 -0.000006 0.000008 3.756517 -5.270492 4.419850 -10.045175 -0.000018 -0.000012 3.147348 0.000003 0.000000 0.000003 -0.086748 -2.345272 10.030911 188.910151 -181.546346 -170.570751 0.000001 -0.000014 4.061085 -0.517849 0.000126 -0.000011 -0.000004 0.000010 3.248870 -0.018793 -0.000009 -0.000004 -0.000005 -0.000014 2.639710 0.000002 0.000000 -0.000000 0.104082 -0.006779 9.502962 3.933605 2.137834 8.881615 0.000002 0.000012 4.568727 -0.507463 -0.000226 0.000009 0.000003 0.000027 3.654992 -0.011654 0.000001 -0.003141 -0.000004 0.000001 2.741241 -0.000000 -0.000001 0.000000 0.086753 2.267479 8.921728 175.743896 -181.767043 -172.198426 0.000011 0.000018 4.061096 1.004130 -0.000349 0.001438 -0.000015 -0.000011 3.654979 0.002325 0.000002 0.001076 0.000008 0.000006 2.741260 0.000000 0.000002 -0.000002 -0.173496 4.467196 7.976998 167.149796 -181.946144 -172.376886 0.000012 0.000006 3.350410 2.000674 -0.000000 0.000002 -0.000035 -0.000029 2.842764 0.001088 -0.000000 -0.000001 0.000004 0.000016 2.639701 -0.000001 -0.000000 0.000001 0.000012 0.000007 0.000010 -0.000001 0.000000 0.000001 0.000012 -0.000000 0.000002 0.000000 -0.000000 0.000000 2.625412 -0.000027 11.175227 -10.938178 78.317230 -0.330183 0.000008 0.000005 10.813637 -66.108684 19.810397 -28.442053 -0.000004 0.000015 28.724804 -11.866741 1.563134 125.107455 0.644371 0.328835 25.716137 -34.207353 -66.034242 47.873219 2.867302 -2.944275 3.959579 -31.666980 16.919907 52.039765 0.000008 -0.000053 3.350410 11.909751 -8.109650 -21.599368 0.000010 0.000000 3.756504 7.939286 -6.118408 -14.796816 -0.000003 -0.000002 3.100026 0.000001 -0.000000 -0.000001 0.086750 -2.345261 10.030895 10.087142 8.130751 20.022764 -0.000015 0.000008 4.061122 -0.426533 7.709633 1.090153 0.000011 0.000014 3.248856 0.073464 7.709639 1.090192 -0.000001 -0.000001 2.639725 -0.000000 0.000001 -0.000002 -0.104105 -0.006779 9.502949 5.056610 8.251275 13.364169 0.000005 -0.000021 4.568722 -0.490219 6.416507 0.336867 -0.000010 0.000060 3.654990 0.017162 6.421842 0.337694 -0.000008 -0.000009 2.741278 0.000001 -0.000000 0.000001 -0.086735 2.267424 8.921719 -3.250554 7.597238 5.951072 0.000001 0.000005 4.061110 0.991279 5.043208 -0.308837 -0.000004 0.000024 3.654972 -0.011816 5.043217 -0.309087 0.000009 -0.000000 2.741231 0.000002 0.000004 -0.000002 0.173500 4.467209 7.977000 -12.281394 4.497281 0.479771 -0.000004 0.000019 3.350398 1.983711 2.982092 -0.580260 0.000010 0.000006 2.842779 -0.015115 2.982102 -0.580191 -0.000014 -0.000007 2.639701 -0.000001 0.000001 -0.000003 0.000002 0.000001 0.000022 -0.000002 0.000001 -0.000003 -0.000003 -0.000004 0.000010 0.000001 -0.000001 -0.000002 -11.289959 0.000001 -0.000018 5.985651 4.228499 -1.345544 0.000015 0.000036 -38.200314 -0.467858 0.196993 22.832786 0.000012 0.000066 -39.900837 -9.168718 0.273952 13.642304 -0.000006 -15.261657 -0.000001 0.783601 0.609300 -20.856070 0.000010 -7.370655 0.000001 -0.000002 0.000000 -0.000000 0.000006 0.000078 -0.000002 -0.000003 -0.000001 -0.000001 -0.000000 0.000054 -0.000006 0.000001 0.000000 0.000000 11.315646 -0.000007 -0.000008 10.099051 -6.405860 3.281099 -0.000022 0.000039 -38.200329 1.754941 -0.508377 16.150392 -0.000010 -0.000010 -39.900837 11.732482 8.143187 20.635449 -0.000006 -15.261619 -0.000008 -1.716249 -1.995887 -20.206403 -0.000002 -7.539919 0.000001 0.000000 -0.000000 -0.000001 -0.000004 -0.000002 -0.000002 0.000000 -0.000000 0.000002 -0.000029 0.000001 -0.000009 0.000000 -0.000000 0.000001 
